<svg height="2766" width="720" xmlns="http://www.w3.org/2000/svg">
<rect height="2766" fill="#555" width="720"></rect>
<text fill="#7f7" font-family="Courier New" font-size="12" xml:space="preserve">
<tspan x="10" y="26">25 megabytes installed</tspan>
<tspan x="10" y="42"></tspan>
<tspan x="10" y="58">node_modules</tspan>
<tspan x="10" y="74">└─┬ x-ray@2.3.2 </tspan>
<tspan x="10" y="90">  ├── batch@0.5.3 </tspan>
<tspan x="10" y="106">  ├─┬ chalk@1.1.3 </tspan>
<tspan x="10" y="122">  │ ├── ansi-styles@2.2.1 </tspan>
<tspan x="10" y="138">  │ ├── escape-string-regexp@1.0.5 </tspan>
<tspan x="10" y="154">  │ ├─┬ has-ansi@2.0.0 </tspan>
<tspan x="10" y="170">  │ │ └── ansi-regex@2.1.1 </tspan>
<tspan x="10" y="186">  │ ├── strip-ansi@3.0.1 </tspan>
<tspan x="10" y="202">  │ └── supports-color@2.0.0 </tspan>
<tspan x="10" y="218">  ├─┬ cheerio@0.20.0 </tspan>
<tspan x="10" y="234">  │ ├─┬ css-select@1.2.0 </tspan>
<tspan x="10" y="250">  │ │ ├── boolbase@1.0.0 </tspan>
<tspan x="10" y="266">  │ │ ├── css-what@2.1.0 </tspan>
<tspan x="10" y="282">  │ │ ├── domutils@1.5.1 </tspan>
<tspan x="10" y="298">  │ │ └── nth-check@1.0.1 </tspan>
<tspan x="10" y="314">  │ ├─┬ dom-serializer@0.1.0 </tspan>
<tspan x="10" y="330">  │ │ └── domelementtype@1.1.3 </tspan>
<tspan x="10" y="346">  │ ├── entities@1.1.1 </tspan>
<tspan x="10" y="362">  │ ├─┬ htmlparser2@3.8.3 </tspan>
<tspan x="10" y="378">  │ │ ├── domelementtype@1.3.0 </tspan>
<tspan x="10" y="394">  │ │ ├── domhandler@2.3.0 </tspan>
<tspan x="10" y="410">  │ │ ├── entities@1.0.0 </tspan>
<tspan x="10" y="426">  │ │ └─┬ readable-stream@1.1.14 </tspan>
<tspan x="10" y="442">  │ │   ├── core-util-is@1.0.2 </tspan>
<tspan x="10" y="458">  │ │   ├── inherits@2.0.3 </tspan>
<tspan x="10" y="474">  │ │   └── string_decoder@0.10.31 </tspan>
<tspan x="10" y="490">  │ ├─┬ jsdom@7.2.2 </tspan>
<tspan x="10" y="506">  │ │ ├── abab@1.0.3 </tspan>
<tspan x="10" y="522">  │ │ ├── acorn@2.7.0 </tspan>
<tspan x="10" y="538">  │ │ ├── acorn-globals@1.0.9 </tspan>
<tspan x="10" y="554">  │ │ ├── cssom@0.3.2 </tspan>
<tspan x="10" y="570">  │ │ ├── cssstyle@0.2.37 </tspan>
<tspan x="10" y="586">  │ │ ├─┬ escodegen@1.8.1 </tspan>
<tspan x="10" y="602">  │ │ │ ├── esprima@2.7.3 </tspan>
<tspan x="10" y="618">  │ │ │ ├── estraverse@1.9.3 </tspan>
<tspan x="10" y="634">  │ │ │ ├── esutils@2.0.2 </tspan>
<tspan x="10" y="650">  │ │ │ ├─┬ optionator@0.8.2 </tspan>
<tspan x="10" y="666">  │ │ │ │ ├── deep-is@0.1.3 </tspan>
<tspan x="10" y="682">  │ │ │ │ ├── fast-levenshtein@2.0.6 </tspan>
<tspan x="10" y="698">  │ │ │ │ ├── levn@0.3.0 </tspan>
<tspan x="10" y="714">  │ │ │ │ ├── prelude-ls@1.1.2 </tspan>
<tspan x="10" y="730">  │ │ │ │ ├── type-check@0.3.2 </tspan>
<tspan x="10" y="746">  │ │ │ │ └── wordwrap@1.0.0 </tspan>
<tspan x="10" y="762">  │ │ │ └─┬ source-map@0.2.0 </tspan>
<tspan x="10" y="778">  │ │ │   └── amdefine@1.0.1 </tspan>
<tspan x="10" y="794">  │ │ ├── nwmatcher@1.3.9 </tspan>
<tspan x="10" y="810">  │ │ ├── parse5@1.5.1 </tspan>
<tspan x="10" y="826">  │ │ ├─┬ request@2.81.0 </tspan>
<tspan x="10" y="842">  │ │ │ ├── aws-sign2@0.6.0 </tspan>
<tspan x="10" y="858">  │ │ │ ├── aws4@1.6.0 </tspan>
<tspan x="10" y="874">  │ │ │ ├── caseless@0.12.0 </tspan>
<tspan x="10" y="890">  │ │ │ ├─┬ combined-stream@1.0.5 </tspan>
<tspan x="10" y="906">  │ │ │ │ └── delayed-stream@1.0.0 </tspan>
<tspan x="10" y="922">  │ │ │ ├── forever-agent@0.6.1 </tspan>
<tspan x="10" y="938">  │ │ │ ├─┬ form-data@2.1.4 </tspan>
<tspan x="10" y="954">  │ │ │ │ └── asynckit@0.4.0 </tspan>
<tspan x="10" y="970">  │ │ │ ├─┬ har-validator@4.2.1 </tspan>
<tspan x="10" y="986">  │ │ │ │ ├─┬ ajv@4.11.6 </tspan>
<tspan x="10" y="1002">  │ │ │ │ │ ├── co@4.6.0 </tspan>
<tspan x="10" y="1018">  │ │ │ │ │ └─┬ json-stable-stringify@1.0.1 </tspan>
<tspan x="10" y="1034">  │ │ │ │ │   └── jsonify@0.0.0 </tspan>
<tspan x="10" y="1050">  │ │ │ │ └── har-schema@1.0.5 </tspan>
<tspan x="10" y="1066">  │ │ │ ├─┬ hawk@3.1.3 </tspan>
<tspan x="10" y="1082">  │ │ │ │ ├── boom@2.10.1 </tspan>
<tspan x="10" y="1098">  │ │ │ │ ├── cryptiles@2.0.5 </tspan>
<tspan x="10" y="1114">  │ │ │ │ ├── hoek@2.16.3 </tspan>
<tspan x="10" y="1130">  │ │ │ │ └── sntp@1.0.9 </tspan>
<tspan x="10" y="1146">  │ │ │ ├─┬ http-signature@1.1.1 </tspan>
<tspan x="10" y="1162">  │ │ │ │ ├── assert-plus@0.2.0 </tspan>
<tspan x="10" y="1178">  │ │ │ │ ├─┬ jsprim@1.4.0 </tspan>
<tspan x="10" y="1194">  │ │ │ │ │ ├── assert-plus@1.0.0 </tspan>
<tspan x="10" y="1210">  │ │ │ │ │ ├── extsprintf@1.0.2 </tspan>
<tspan x="10" y="1226">  │ │ │ │ │ ├── json-schema@0.2.3 </tspan>
<tspan x="10" y="1242">  │ │ │ │ │ └── verror@1.3.6 </tspan>
<tspan x="10" y="1258">  │ │ │ │ └─┬ sshpk@1.13.0 </tspan>
<tspan x="10" y="1274">  │ │ │ │   ├── asn1@0.2.3 </tspan>
<tspan x="10" y="1290">  │ │ │ │   ├── assert-plus@1.0.0 </tspan>
<tspan x="10" y="1306">  │ │ │ │   ├── bcrypt-pbkdf@1.0.1 </tspan>
<tspan x="10" y="1322">  │ │ │ │   ├─┬ dashdash@1.14.1 </tspan>
<tspan x="10" y="1338">  │ │ │ │   │ └── assert-plus@1.0.0 </tspan>
<tspan x="10" y="1354">  │ │ │ │   ├── ecc-jsbn@0.1.1 </tspan>
<tspan x="10" y="1370">  │ │ │ │   ├─┬ getpass@0.1.6 </tspan>
<tspan x="10" y="1386">  │ │ │ │   │ └── assert-plus@1.0.0 </tspan>
<tspan x="10" y="1402">  │ │ │ │   ├── jodid25519@1.0.2 </tspan>
<tspan x="10" y="1418">  │ │ │ │   ├── jsbn@0.1.1 </tspan>
<tspan x="10" y="1434">  │ │ │ │   └── tweetnacl@0.14.5 </tspan>
<tspan x="10" y="1450">  │ │ │ ├── is-typedarray@1.0.0 </tspan>
<tspan x="10" y="1466">  │ │ │ ├── isstream@0.1.2 </tspan>
<tspan x="10" y="1482">  │ │ │ ├── json-stringify-safe@5.0.1 </tspan>
<tspan x="10" y="1498">  │ │ │ ├── oauth-sign@0.8.2 </tspan>
<tspan x="10" y="1514">  │ │ │ ├── performance-now@0.2.0 </tspan>
<tspan x="10" y="1530">  │ │ │ ├── qs@6.4.0 </tspan>
<tspan x="10" y="1546">  │ │ │ ├── safe-buffer@5.0.1 </tspan>
<tspan x="10" y="1562">  │ │ │ ├── stringstream@0.0.5 </tspan>
<tspan x="10" y="1578">  │ │ │ ├── tunnel-agent@0.6.0 </tspan>
<tspan x="10" y="1594">  │ │ │ └── uuid@3.0.1 </tspan>
<tspan x="10" y="1610">  │ │ ├── sax@1.2.2 </tspan>
<tspan x="10" y="1626">  │ │ ├── symbol-tree@3.2.2 </tspan>
<tspan x="10" y="1642">  │ │ ├─┬ tough-cookie@2.3.2 </tspan>
<tspan x="10" y="1658">  │ │ │ └── punycode@1.4.1 </tspan>
<tspan x="10" y="1674">  │ │ ├── webidl-conversions@2.0.1 </tspan>
<tspan x="10" y="1690">  │ │ ├─┬ whatwg-url-compat@0.6.5 </tspan>
<tspan x="10" y="1706">  │ │ │ └── tr46@0.0.3 </tspan>
<tspan x="10" y="1722">  │ │ └── xml-name-validator@2.0.1 </tspan>
<tspan x="10" y="1738">  │ └── lodash@4.17.4 </tspan>
<tspan x="10" y="1754">  ├─┬ debug@2.2.0 </tspan>
<tspan x="10" y="1770">  │ └── ms@0.7.1 </tspan>
<tspan x="10" y="1786">  ├─┬ enstore@1.0.1 </tspan>
<tspan x="10" y="1802">  │ └── monotonic-timestamp@0.0.8 </tspan>
<tspan x="10" y="1818">  ├── is-url@1.2.2 </tspan>
<tspan x="10" y="1834">  ├─┬ isobject@2.0.0 </tspan>
<tspan x="10" y="1850">  │ └── isarray@0.0.1 </tspan>
<tspan x="10" y="1866">  ├── object-assign@4.0.1 </tspan>
<tspan x="10" y="1882">  ├─┬ x-ray-crawler@2.0.2 </tspan>
<tspan x="10" y="1898">  │ ├─┬ cheerio@0.18.0 </tspan>
<tspan x="10" y="1914">  │ │ ├─┬ CSSselect@0.4.1 </tspan>
<tspan x="10" y="1930">  │ │ │ ├── CSSwhat@0.4.7 </tspan>
<tspan x="10" y="1946">  │ │ │ └── domutils@1.4.3 </tspan>
<tspan x="10" y="1962">  │ │ ├─┬ dom-serializer@0.0.1 </tspan>
<tspan x="10" y="1978">  │ │ │ └── domelementtype@1.1.3 </tspan>
<tspan x="10" y="1994">  │ │ └── lodash@2.4.2 </tspan>
<tspan x="10" y="2010">  │ ├── delegates@0.1.0 </tspan>
<tspan x="10" y="2026">  │ ├── emitter-component@1.1.1 </tspan>
<tspan x="10" y="2042">  │ ├── enqueue@1.0.2 </tspan>
<tspan x="10" y="2058">  │ ├─┬ http-context@1.1.1 </tspan>
<tspan x="10" y="2074">  │ │ ├─┬ accepts@1.3.3 </tspan>
<tspan x="10" y="2090">  │ │ │ └── negotiator@0.6.1 </tspan>
<tspan x="10" y="2106">  │ │ ├─┬ assert@1.4.1 </tspan>
<tspan x="10" y="2122">  │ │ │ └─┬ util@0.10.3 </tspan>
<tspan x="10" y="2138">  │ │ │   └── inherits@2.0.1 </tspan>
<tspan x="10" y="2154">  │ │ ├── content-disposition@0.5.2 </tspan>
<tspan x="10" y="2170">  │ │ ├── content-type@1.0.2 </tspan>
<tspan x="10" y="2186">  │ │ ├── destroy@1.0.4 </tspan>
<tspan x="10" y="2202">  │ │ ├── error-inject@1.0.0 </tspan>
<tspan x="10" y="2218">  │ │ ├── escape-html@1.0.3 </tspan>
<tspan x="10" y="2234">  │ │ ├── http-incoming@0.12.0 </tspan>
<tspan x="10" y="2250">  │ │ ├── http-outgoing@0.12.0 </tspan>
<tspan x="10" y="2266">  │ │ ├── koa-is-json@1.0.0 </tspan>
<tspan x="10" y="2282">  │ │ ├─┬ mime-types@2.1.15 </tspan>
<tspan x="10" y="2298">  │ │ │ └── mime-db@1.27.0 </tspan>
<tspan x="10" y="2314">  │ │ ├─┬ on-finished@2.3.0 </tspan>
<tspan x="10" y="2330">  │ │ │ └── ee-first@1.1.1 </tspan>
<tspan x="10" y="2346">  │ │ ├── parseurl@1.3.1 </tspan>
<tspan x="10" y="2362">  │ │ ├── querystring@0.2.0 </tspan>
<tspan x="10" y="2378">  │ │ ├── statuses@1.3.1 </tspan>
<tspan x="10" y="2394">  │ │ ├─┬ type-is@1.6.15 </tspan>
<tspan x="10" y="2410">  │ │ │ └── media-typer@0.3.0 </tspan>
<tspan x="10" y="2426">  │ │ └── vary@1.1.1 </tspan>
<tspan x="10" y="2442">  │ ├── selectn@0.9.6 </tspan>
<tspan x="10" y="2458">  │ ├── sliced@0.0.5 </tspan>
<tspan x="10" y="2474">  │ ├─┬ superagent@1.8.5 </tspan>
<tspan x="10" y="2490">  │ │ ├── component-emitter@1.2.1 </tspan>
<tspan x="10" y="2506">  │ │ ├── cookiejar@2.0.6 </tspan>
<tspan x="10" y="2522">  │ │ ├── extend@3.0.0 </tspan>
<tspan x="10" y="2538">  │ │ ├─┬ form-data@1.0.0-rc3 </tspan>
<tspan x="10" y="2554">  │ │ │ └── async@1.5.2 </tspan>
<tspan x="10" y="2570">  │ │ ├── formidable@1.0.17 </tspan>
<tspan x="10" y="2586">  │ │ ├── methods@1.1.2 </tspan>
<tspan x="10" y="2602">  │ │ ├── mime@1.3.4 </tspan>
<tspan x="10" y="2618">  │ │ ├── qs@2.3.3 </tspan>
<tspan x="10" y="2634">  │ │ ├── readable-stream@1.0.27-1 </tspan>
<tspan x="10" y="2650">  │ │ └── reduce-component@1.0.1 </tspan>
<tspan x="10" y="2666">  │ ├─┬ wrap-fn@0.1.5 </tspan>
<tspan x="10" y="2682">  │ │ └── co@3.1.0 </tspan>
<tspan x="10" y="2698">  │ └─┬ yieldly@0.0.1 </tspan>
<tspan x="10" y="2714">  │   └── is-browser@2.0.1 </tspan>
<tspan x="10" y="2730">  └─┬ x-ray-parse@1.0.1 </tspan>
<tspan x="10" y="2746">    └── format-parser@0.0.2</tspan>
</text>
</svg>
